PathFileType	4	(X/Y/Z)	C:/Users/beibeiliu/ov580/test_trc/User2\sequence.11_training_dense_left.trc
DataRate	CameraRate	NumFrames	NumMarkers	Units	OrigDataRate	OrigDataStartFrame	OrigNumFrames
120	120	11	19	mm	120	75	124
Frame#	Time	ThumbCMC			ThumbMCP			ThumbIP			ThumbTip			IndexMCP			IndexPIP			IndexTip			MiddleMCP			MiddlePIP			MiddleTip			RingMCP			RingPIP			RingTip			PinkyMCP			PinkyPIP			PinkyTip			BackHand1			BackHand2			BackHand3	
		X0	Y0	Z0	X1	Y1	Z1	X2	Y2	Z2	X3	Y3	Z3	X4	Y4	Z4	X5	Y5	Z5	X6	Y6	Z6	X7	Y7	Z7	X8	Y8	Z8	X9	Y9	Z9	X10	Y10	Z10	X11	Y11	Z11	X12	Y12	Z12	X13	Y13	Z13	X14	Y14	Z14	X15	Y15	Z15	X16	Y16	Z16	X17	Y17	Z17	X18	Y18	Z18	
74	0.616667	-235.95	-31.2995	-59.4045	-218.956	-13.8815	-94.5048	-193.259	-21.227	-123.518	-172.711	-34.2342	-134.333	-248.315	-74.7438	-127.309	-251.449	-79.7336	-156.328	-251.543	-79.2587	-185.896	-233.637	-93.4471	-132.01	-232.767	-98.9799	-162.545	-233.404	-99.5041	-194.319	-207.033	-95.4269	-123.323	-200.382	-100.414	-157.495	-195.619	-92.2328	-181.894	-173.869	-81.0992	-116.284	-166.097	-53.2747	-127.815	-173.623	-35.7117	-100.082	-203.516	-91.4795	-66.8285	-211.596	-89.5206	-35.5028	-239.723	-74.1846	-57.8465	
75	0.625	-225.967	-17.8313	-53.3647	-208.343	-11.4022	-89.1683	-194.782	-20.7401	-121.371	-181.547	-43.9571	-135.358	-261.15	-54.849	-116.877	-270.049	-54.5442	-147.889	-274.498	-50.1005	-174.69	-256.09	-74.0459	-121.577	-263.476	-78.4362	-153.588	-267.712	-76.3888	-188.88	-230.812	-89.6988	-121.041	-236.894	-88.9126	-150.601	-230.765	-82.6578	-184.094	-199.092	-85.3473	-114.535	-180.797	-65.832	-134.315	-173.78	-45.4712	-107.362	-222.668	-85.2477	-68.5296	-219.174	-83.8961	-30.7035	-242.482	-61.0539	-47.2243	
76	0.633333	-202.931	-8.51992	-48.8444	-187.669	-4.81274	-83.9153	-184.951	-23.5598	-116.009	-184.735	-46.5289	-133.529	-252.345	-14.4112	-106.459	-263.183	-7.60352	-135.705	-265.738	-6.13658	-163.595	-259.088	-39.8022	-116.844	-269.47	-38.535	-146.792	-274.997	-31.2375	-176.612	-245.027	-60.9877	-114.407	-252.369	-61.6171	-147.208	-247.73	-54.3571	-174.621	-217.815	-77.1687	-114.863	-197.398	-64.875	-137.022	-169.931	-54.9626	-113.827	-228.261	-70.8204	-61.754	-226.051	-77.0239	-33.11	-237.333	-40.2484	-46.1368	
77	0.641667	-179.511	-14.7845	-40.9285	-167.791	-10.8524	-77.6389	-170.58	-23.6258	-113.101	-182.709	-44.9316	-126.911	-224.825	6.74203	-103.032	-230.559	21.5535	-129.681	-234.072	29.2463	-157.955	-240.511	-8.90952	-110.583	-248.846	0.354682	-138.583	-254.595	7.12752	-170.963	-240.48	-36.2721	-113.359	-246.96	-30.304	-143.973	-242.111	-22.1886	-173.552	-226.1	-57.3637	-110.503	-206.062	-52.5629	-137.025	-178.233	-57.6593	-126.317	-232.688	-54.824	-61.6296	-228.052	-62.3824	-30.0716	-222.678	-24.8799	-42.5249	
78	0.65	-158.032	-24.9829	-36.0473	-150.99	-21.488	-73.7456	-160.179	-28.9367	-106.763	-181.583	-43.4592	-118.721	-188.63	15.8805	-100.393	-185.892	31.5714	-120.859	-186.005	43.2523	-146.334	-215.035	3.98123	-105.319	-217.328	24.4471	-135.904	-218.352	37.6447	-161.69	-225.166	-17.3732	-106.809	-230.978	-6.56872	-137.716	-224.801	0.768071	-164.147	-225.021	-44.9491	-103.623	-210.978	-40.8632	-137.547	-185.388	-55.5034	-142.455	-222.224	-39.1315	-56.814	-224.367	-47.0481	-28.9806	-199.298	-17.0755	-37.6984	
79	0.658333	-149.312	-37.7931	-34.9204	-137.54	-33.2387	-69.0447	-149.161	-34.445	-105.429	-175.564	-42.8568	-117.707	-163.765	9.4134	-96.3125	-155.579	27.1194	-121.47	-149.341	39.7648	-140.062	-191.414	9.60993	-103.972	-187.588	27.0864	-127.902	-189.138	42.5588	-156.177	-208.493	-4.93895	-107.554	-211.363	3.71879	-133.634	-203.619	11.852	-160.593	-220.754	-34.5925	-103.502	-216.495	-33.6094	-135.009	-196.711	-47.3257	-153.594	-214.522	-31.4746	-54.8027	-216.6	-34.667	-26.0743	-184.865	-15.9934	-35.5127	
80	0.666667	-145.239	-47.3366	-32.5761	-127.457	-45.3124	-64.7704	-144.462	-44.06	-99.1507	-167.834	-50.0898	-112.591	-147.118	3.87189	-96.2257	-137.103	17.658	-119.188	-124.963	29.1101	-140.911	-175.878	6.01459	-102.719	-171.639	24.523	-128.957	-166.586	38.3551	-154.405	-195.244	-8.08924	-103.793	-194.149	3.25298	-129.038	-186.998	11.1047	-161.609	-219.254	-34.0008	-106	-213.008	-33.9097	-131.502	-207.685	-40.8786	-158.44	-208.128	-25.2508	-57.882	-207.353	-33.2148	-23.6442	-174.241	-20.5644	-33.3068	
81	0.675	-137.092	-56.9252	-29.1198	-123.949	-58.3187	-63.8137	-137.437	-58.3925	-98.6731	-163.288	-62.7809	-110.953	-136.52	-11.9116	-94.9436	-126.432	0.20801	-117.749	-114.513	10.1078	-144.605	-160.806	-4.43796	-104.062	-153.659	11.2784	-129.839	-153.635	24.8489	-158.948	-188.306	-16.2879	-105.508	-187.271	-5.23482	-130.724	-176.517	2.72252	-163.311	-210.534	-38.1553	-105.812	-213.053	-37.0081	-130.714	-216.824	-38.3884	-157.959	-201.496	-30.9411	-56.0627	-206.359	-35.9108	-25.7003	-167.612	-27.8493	-35.0033	
82	0.683333	-133.925	-62.7986	-26.9157	-119.171	-71.2926	-56.9812	-134.692	-76.0562	-94.4897	-161.123	-78.099	-102.96	-126.661	-26.4295	-97.2801	-114	-20.0628	-119.833	-105.023	-14.2545	-146.652	-153.964	-22.3411	-106.43	-143.316	-10.0689	-138.855	-139.177	-0.780202	-167.625	-179.339	-30.3392	-109.719	-178.197	-23.8818	-136.087	-165.589	-19.26	-165.046	-205.592	-52.32	-100.378	-211.023	-48.9994	-128.045	-213.675	-48.3295	-152.993	-190.974	-37.9859	-60.2211	-198.325	-38.3454	-26.6031	-163.981	-32.936	-34.6511	
83	0.691667	-132.91	-55.5617	-20.6139	-111.371	-68.2129	-53.0284	-126.239	-82.5237	-84.2786	-153.012	-91.856	-94.5926	-122.984	-33.2847	-98.3398	-109.772	-30.3551	-123.46	-97.4069	-27.5294	-147.363	-149.618	-35.9524	-115.734	-140.003	-33.6477	-144.006	-132.18	-30.5057	-171.843	-172.437	-49.6597	-111.548	-168.949	-48.3265	-139.277	-159.158	-48.4504	-170.059	-197.017	-73.2105	-100.217	-200.84	-75.5689	-126.095	-198.43	-73.6696	-153.474	-190.521	-51.0951	-63.4599	-201.432	-46.3437	-31.6455	-163.683	-32.1438	-39.9361	
84	0.7	-137.726	-25.7428	-23.0914	-112.048	-42.8408	-47.9256	-113.553	-69.687	-75.6992	-138.263	-88.9766	-79.4443	-128.571	-21.5638	-99.8859	-111.141	-22.6566	-126.901	-97.0253	-20.5063	-145.594	-145.179	-37.8619	-115.196	-136.653	-41.5586	-141.661	-123.254	-41.9862	-171.188	-165.403	-60.5311	-110.907	-155.031	-63.1177	-138.778	-142.568	-66.7869	-165.2	-178.222	-83.1677	-94.7403	-178.757	-95.059	-117.328	-175.338	-96.684	-142.109	-189.781	-55.0662	-64.1193	-203.707	-46.817	-31.8985	-173.98	-21.1259	-44.7869	
